<?xml version="1.0" encoding="UTF-8" standalone="no"?>
<!-- Created with Inkscape (http://www.inkscape.org/) -->

<svg
   width="46.733379mm"
   height="78.689545mm"
   viewBox="0 0 46.733379 78.689545"
   version="1.1"
   id="svg1"
   xml:space="preserve"
   xmlns:xlink="http://www.w3.org/1999/xlink"
   xmlns="http://www.w3.org/2000/svg"
   xmlns:svg="http://www.w3.org/2000/svg"><defs
     id="defs1"><linearGradient
       id="linearGradient3"><stop
         style="stop-color:#ffffff;stop-opacity:1;"
         offset="0"
         id="stop2" /><stop
         style="stop-color:#ffffff;stop-opacity:0;"
         offset="1"
         id="stop3" /></linearGradient><radialGradient
       xlink:href="#linearGradient3"
       id="radialGradient2"
       gradientUnits="userSpaceOnUse"
       gradientTransform="matrix(1.1078306,0.01919918,-0.02083895,1.2024485,57.55404,192.82797)"
       cx="-130.02606"
       cy="209.93874"
       fx="-130.02606"
       fy="209.93874"
       r="3.0254989" /></defs><g
     id="layer1"
     transform="translate(118.15277,-412.02463)"><path
       d="m -106.48355,479.39886 -0.002,-24.51003 0.0443,-0.1055 5.84537,-5.9556 c -0.0854,-0.22857 -0.16163,-0.46123 -0.22829,-0.69817 l -6.37495,6.40599 v 24.82131 c 0.005,0.0395 -0.006,0.0792 -0.031,0.11077 -0.008,0.0108 -0.0182,0.0205 -0.0292,0.0288 -0.0205,0.0159 -0.0447,0.0264 -0.0705,0.0305 -0.67963,0.18416 -1.18058,0.81023 -1.17546,1.55544 0.007,0.88628 0.72563,1.59303 1.60427,1.58693 0.87868,-0.006 1.58434,-0.72479 1.57813,-1.61108 -0.005,-0.69348 -0.44923,-1.27599 -1.06025,-1.49401 -0.0691,-0.0247 -0.21021,-0.19972 -0.19952,-0.27126 z m -0.43894,0.64254 c 0.57644,-0.004 1.0517,0.45473 1.05601,1.02208 0.004,0.56737 -0.46358,1.03307 -1.04,1.03731 -0.57642,0.004 -1.0501,-0.45471 -1.0544,-1.02209 -0.004,-0.56735 0.46197,-1.03305 1.03839,-1.0373 z"
       style="fill:#000000;fill-opacity:1;stroke:#000000;stroke-width:0.79739;stroke-linecap:square;stroke-dasharray:none;stroke-opacity:1;paint-order:stroke fill markers"
       id="path61" /><g
       id="g63"
       style="fill:#000000;fill-opacity:1;stroke:none;stroke-opacity:1"
       transform="translate(39.158333,232.83342)"><path
         d="m -128.06411,231.46259 c -0.58005,0.004 -1.04418,0.47468 -1.03985,1.05471 0.004,0.58004 0.4754,1.04418 1.05543,1.03984 0.58002,-0.004 1.04133,-0.4754 1.037,-1.05544 -0.004,-0.58001 -0.47257,-1.04345 -1.05258,-1.03911 z"
         style="fill:#000000;fill-opacity:1;stroke:none;stroke-width:0.065839;stroke-linecap:square;stroke-opacity:1;paint-order:stroke fill markers"
         id="path62" /><path
         d="m -127.32238,222.60706 v 8.12991 c 0.67491,0.29088 1.14918,0.96892 1.15506,1.75831 0.007,0.88456 -0.5792,1.63824 -1.38065,1.86736 -0.15808,0.0452 -0.32454,0.07 -0.4965,0.0713 -1.04377,0.008 -1.89495,-0.85204 -1.90316,-1.91111 -0.006,-0.85441 0.5374,-1.58501 1.29778,-1.84001 v -5.69353 -0.71203 c -1.78532,2.35836 -3.31372,4.91616 -3.54526,6.89156 -4.9e-4,0.004 -0.001,0.008 -0.002,0.0127 -0.0245,0.21885 -0.0382,0.4415 -0.0382,0.66692 0,3.32908 2.73392,6.02832 6.11215,6.02832 3.38182,0 6.39246,-2.5778 6.11215,-6.01611 v -0.002 c -0.40971,-6.00696 -2.54309,-13.81269 -2.66292,-14.24948 -0.1749,0.16626 -2.31858,2.19277 -4.64831,4.99796 z"
         style="fill:#000000;fill-opacity:1;stroke:none;stroke-width:0.0492821;stroke-linecap:square;stroke-opacity:1;paint-order:stroke fill markers"
         id="path63" /></g><path
       d="m -95.662548,441.66374 -3.356067,-0.0116 c -0.51324,1.04386 -0.80267,2.21762 -0.80267,3.46003 0,4.33958 3.515057,7.85239 7.854644,7.85239 2.4981,0 4.722857,-1.16444 6.161527,-2.98098 l -2.087747,-3.42259 c -0.8057,0.55762 -1.79255,0.84965 -2.84012,0.84965 -2.730817,0 -4.947457,-2.2172 -4.947457,-4.94799 0,-0.25954 -0.0131,-0.52776 0.0179,-0.79879 z"
       style="fill:#000000;fill-opacity:1;stroke-width:0.047323;stroke-linecap:square;paint-order:stroke fill markers"
       id="path64" /><path
       d="m -82.005837,452.202 c 0,0 3.837,12.14176 1.8495,14.64304 2.08806,-0.68535 3.623027,-2.44631 3.623027,-4.68447 -0.1353,-4.23929 -2.438187,-6.80816 -5.472527,-9.95857 z"
       style="fill:#000000;fill-opacity:1;stroke-width:0.0479999;stroke-linecap:square;paint-order:stroke fill markers"
       id="path65" /><path
       d="m -101.53797,433.92767 c -0.67122,0.23356 -1.32795,0.50664 -1.97198,0.81752 0.64074,-0.30914 1.29824,-0.58284 1.97198,-0.81752 z"
       id="path66"
       style="fill:#000000;fill-opacity:1" /><path
       d="m -94.716168,437.86593 c -0.0348,0.008 -0.0704,0.0125 -0.1049,0.0212 -0.11406,0.0291 -0.22745,0.0605 -0.33951,0.0941 0.14594,-0.0434 0.2951,-0.0796 0.44441,-0.11523 z"
       style="fill:#000000;fill-opacity:1;stroke-width:0.0479999;stroke-linecap:square;paint-order:stroke fill markers"
       id="path67" /><path
       d="m -93.504348,437.67472 c -0.16375,0.009 -0.30948,0.0226 -0.43409,0.0403 -0.0544,0.007 -0.10671,0.0204 -0.16071,0.0289 0.1966,-0.0298 0.39455,-0.0544 0.5948,-0.0693 z"
       style="fill:#000000;fill-opacity:1;stroke-width:0.0479999;stroke-linecap:square;paint-order:stroke fill markers"
       id="path68" /><path
       d="m -92.643938,437.65664 c -0.28756,-0.009 -0.57307,-0.003 -0.85525,0.0176 1.417887,-0.075 4.205827,0.25575 6.833174,2.22415 -1.847197,-1.40361 -3.965037,-2.17997 -5.977924,-2.24172 z"
       style="fill:#000000;fill-opacity:1;stroke-width:0.0479999;stroke-linecap:square;paint-order:stroke fill markers"
       id="path69" /><path
       d="m -106.36663,436.42157 c -0.14886,0.10822 -0.29619,0.21872 -0.44235,0.33176 -0.0383,0.0296 -0.087,0.0862 -0.12609,0.11731 0.18965,-0.1495 0.37346,-0.30725 0.56844,-0.44907 z"
       style="fill:#000000;fill-opacity:1;stroke-width:0.0479999;stroke-linecap:square;paint-order:stroke fill markers"
       id="path70" /><path
       d="m -101.53797,433.92767 c -0.67374,0.23468 -1.33124,0.50838 -1.97198,0.81752 0.64403,-0.31088 1.30076,-0.58396 1.97198,-0.81752 z"
       style="fill:#000000;fill-opacity:1;stroke-width:0.0479999;stroke-linecap:square;paint-order:stroke fill markers"
       id="path71" /><path
       d="m -90.560861,433.48221 c 3.419487,0.90964 6.453177,2.76509 8.804104,5.26945 -2.364007,-2.62838 -5.481267,-4.39654 -8.804104,-5.26945 z"
       style="fill:#000000;fill-opacity:1;stroke-width:0.0479999;stroke-linecap:square;paint-order:stroke fill markers"
       id="path72" /><path
       d="m -92.383491,433.10394 c 0.61783,0.0972 1.22744,0.21995 1.82263,0.37827 -0.004,-9.9e-4 -0.008,-0.002 -0.0114,-0.003 -0.59961,-0.15712 -1.20437,-0.27956 -1.81126,-0.37517 z"
       style="fill:#000000;fill-opacity:1;stroke-width:0.0479999;stroke-linecap:square;paint-order:stroke fill markers"
       id="path73" /><path
       d="m -95.374518,432.8559 c -0.16076,3.5e-4 -0.31575,0.0338 -0.47594,0.0382 0.27603,-0.007 0.55133,-0.02 0.82785,-0.015 -0.11857,-0.002 -0.23218,-0.0232 -0.3514,-0.0232 z"
       style="fill:#000000;fill-opacity:1;stroke-width:0.0479999;stroke-linecap:square;paint-order:stroke fill markers"
       id="path74" /><path
       d="m -95.374518,432.8559 h 5.1e-4 c 0.11922,0 0.23283,0.0209 0.3514,0.0232 0.001,2e-5 0.003,-2e-5 0.004,0 0,0 0,0 0,0 -0.27784,-0.005 -0.55465,0.008 -0.83199,0.015 0,0 0,0 0,0 0.16019,-0.004 0.31518,-0.0379 0.47594,-0.0382 z m 2.63084,0.1943 c 0.1204,0.017 0.240377,0.0349 0.360187,0.0537 0.60689,0.0956 1.21165,0.21805 1.81126,0.37517 0.003,0.001 0.007,0.002 0.0114,0.003 3.322837,0.87291 6.440097,2.64107 8.804104,5.26945 -2.350927,-2.50436 -5.384617,-4.35981 -8.804104,-5.26945 -0.71061,-0.18903 -1.44157,-0.32736 -2.182817,-0.43201 z"
       style="fill:#000000;fill-opacity:1;stroke-width:0.0479999;stroke-linecap:square;paint-order:stroke fill markers"
       id="path75" /><path
       d="m -110.79013,429.63387 a 0.88850653,0.88850653 0 0 0 -0.88832,0.88884 0.88850653,0.88850653 0 0 0 0.88832,0.88831 0.88850653,0.88850653 0 0 0 0.88832,-0.88831 0.88850653,0.88850653 0 0 0 -0.88832,-0.88884 z"
       style="fill:#000000;fill-opacity:1;stroke-width:0.0479999;stroke-linecap:square;paint-order:stroke fill markers"
       id="path76" /><path
       d="m -110.79013,429.63387 a 0.88850653,0.88850653 0 0 1 0.88832,0.88884 0.88850653,0.88850653 0 0 1 -0.88832,0.88831 0.88850653,0.88850653 0 0 1 -0.88832,-0.88831 0.88850653,0.88850653 0 0 1 0.88832,-0.88884 z"
       style="fill:#000000;fill-opacity:1;stroke-width:0.0479999;stroke-linecap:square;paint-order:stroke fill markers"
       id="path77" /><path
       d="m -95.973448,423.97013 a 0.88850653,0.88850653 0 0 0 -0.88832,0.88884 0.88850653,0.88850653 0 0 0 0.88832,0.88832 0.88850653,0.88850653 0 0 0 0.88883,-0.88832 0.88850653,0.88850653 0 0 0 -0.88883,-0.88884 z"
       style="fill:#000000;fill-opacity:1;stroke-width:0.0479999;stroke-linecap:square;paint-order:stroke fill markers"
       id="path78" /><path
       d="m -95.973448,423.97013 a 0.88850653,0.88850653 0 0 1 0.88883,0.88884 0.88850653,0.88850653 0 0 1 -0.88883,0.88832 0.88850653,0.88850653 0 0 1 -0.88832,-0.88832 0.88850653,0.88850653 0 0 1 0.88832,-0.88884 z"
       style="fill:#000000;fill-opacity:1;stroke-width:0.0479999;stroke-linecap:square;paint-order:stroke fill markers"
       id="path79" /><path
       d="m -105.26437,422.59916 a 0.88850653,0.88850653 0 0 0 -0.88883,0.88883 0.88850653,0.88850653 0 0 0 0.88883,0.88832 0.88850653,0.88850653 0 0 0 0.88832,-0.88832 0.88850653,0.88850653 0 0 0 -0.88832,-0.88883 z"
       style="fill:#000000;fill-opacity:1;stroke-width:0.0479999;stroke-linecap:square;paint-order:stroke fill markers"
       id="path80" /><path
       d="m -105.26437,422.59916 a 0.88850653,0.88850653 0 0 1 0.88832,0.88883 0.88850653,0.88850653 0 0 1 -0.88832,0.88832 0.88850653,0.88850653 0 0 1 -0.88883,-0.88832 0.88850653,0.88850653 0 0 1 0.88883,-0.88883 z"
       style="fill:#000000;fill-opacity:1;stroke-width:0.0479999;stroke-linecap:square;paint-order:stroke fill markers"
       id="path81" /><path
       d="m -111.49861,412.02461 c 0,0 -3.21844,6.22284 2.5895,13.42554 0,0 -4.59714,1.22369 -9.09505,-4.20026 0,0 -2.22523,14.41038 10.54561,13.68753 1.54703,-0.98324 3.04276,-1.75117 4.48241,-2.33577 l -2.67167,-1.50069 h -3.52175 c -0.24081,0.64916 -0.87565,1.1126 -1.62057,1.1126 -0.952,-10e-6 -1.72341,-0.75683 -1.72341,-1.69085 0,-0.93401 0.77141,-1.69137 1.72341,-1.69137 0.80666,-1e-5 1.48375,0.54374 1.67173,1.27795 h 3.51348 0.21704 l 3.62408,2.03812 c 1.863115,-0.63964 3.626385,-0.97458 5.278752,-1.08004 l -2.780707,-2.98999 h -2.783815 l -2.92283,-2.92282 c -0.095,0.0159 -0.19233,0.0248 -0.29197,0.0248 -0.952,0 -1.72392,-0.75736 -1.72392,-1.69137 0,-0.93402 0.77192,-1.69137 1.72392,-1.69137 0.952,0 1.72341,0.75735 1.72341,1.69137 0,0.46546 -0.19166,0.8874 -0.50178,1.19321 l 2.40452,2.40451 h 2.806035 l 3.665917,3.94497 c 1.85708,0.0156 3.559627,0.31584 5.091677,0.78135 l -5.081857,-5.46426 c -0.24316,0.12878 -0.52125,0.20205 -0.817,0.20205 -0.952,0 -1.72341,-0.75683 -1.72341,-1.69085 0,-0.93402 0.77141,-1.69138 1.72341,-1.69137 0.952,0 1.72392,0.75736 1.72392,1.69137 0,0.28608 -0.0732,0.55598 -0.20102,0.7922 l 6.438367,6.92154 c 4.536387,1.97646 7.105504,5.15007 7.105504,5.15007 0,0 9.476117,-10.65206 -7.133414,-19.94555 0,0 1.347987,5.70885 -0.90123,5.99447 -2.19868,0.2792 1.15846,-8.03587 -14.699889,-11.05463 0,0 1.25229,2.3511 2.2686,4.60592 0.94638,2.09966 -0.7956,4.27081 -2.77193,3.20859 -2.3506,-1.26338 -5.25595,-3.8487 -7.35407,-8.50697 z"
       style="fill:#000000;fill-opacity:1;stroke-width:0.0479999;stroke-linecap:square;paint-order:stroke fill markers"
       id="path82" /><path
       d="m -115.21777,450.63466 c 0.66401,-2.09877 1.37983,-3.85689 2.04536,-5.30097 -0.75849,1.64746 -1.45359,3.4139 -2.04536,5.30097 z"
       style="fill:#000000;fill-opacity:1"
       id="path83" /><path
       d="m -117.18561,459.43722 c 0.22499,-1.62407 0.51211,-3.13603 0.832,-4.55735 -0.33679,1.49472 -0.61801,3.0197 -0.832,4.55735 z"
       style="fill:#000000;fill-opacity:1"
       id="path84" /><path
       d="m -114.57698,476.24808 c -0.94298,-1.29299 -1.67508,-2.46936 -2.1854,-3.35742 0.72373,1.27274 1.46817,2.37569 2.1854,3.35742 z"
       style="fill:#000000;fill-opacity:1"
       id="path85" /><path
       d="m -110.83509,441.06263 c 0.95407,-1.41333 2.61262,-3.16814 3.90002,-4.19199 -1.38601,1.09255 -2.63316,2.37886 -3.67574,3.86126 0,0 -0.14362,0.21448 -0.22428,0.33073 z"
       style="fill:#000000;fill-opacity:1;stroke-width:0.103415;stroke-linecap:square;paint-order:stroke fill markers"
       id="path86" /><path
       d="m -111.03714,441.35977 c 0.1273,-0.19747 0.12952,-0.19261 0.20205,-0.29714 -0.0189,0.0279 -0.0468,0.0597 -0.0651,0.0873 -0.0459,0.0694 -0.0913,0.13935 -0.13694,0.20981 z"
       style="fill:#000000;fill-opacity:1;stroke-width:0.103415;stroke-linecap:square;paint-order:stroke fill markers"
       id="path87" /><path
       d="m -113.17241,445.33369 c 0.66193,-1.43776 1.36977,-2.79124 2.13527,-3.97392 -0.0221,0.0342 -0.0452,0.07 -0.0687,0.10697 -0.0932,0.14549 -0.18429,0.29227 -0.27337,0.44028 -0.46534,0.7681 -1.1022,1.92737 -1.79317,3.42667 z"
       style="fill:#000000;fill-opacity:1;stroke-width:0.103415;stroke-linecap:square;paint-order:stroke fill markers"
       id="path88" /><path
       d="m -116.35361,454.87987 c 0.32699,-1.45124 0.70587,-2.87407 1.13584,-4.24521 -0.40828,1.29046 -0.79129,2.71432 -1.13584,4.24521 z"
       style="fill:#000000;fill-opacity:1;stroke-width:0.103415;stroke-linecap:square;paint-order:stroke fill markers"
       id="path89" /><path
       d="m -117.65844,471.20343 c -0.0726,-1.38746 -0.0998,-2.73071 -0.0879,-4.02922 -10e-4,0.22873 -0.002,0.46695 -0.003,0.71624 z"
       style="fill:#000000;fill-opacity:1;stroke-width:0.103415;stroke-linecap:square;paint-order:stroke fill markers"
       id="path90" /><path
       d="m -114.12274,476.82944 c -0.15634,-0.20454 -0.29307,-0.36076 -0.45424,-0.58136 0.13742,0.18842 0.30767,0.38832 0.45424,0.58136 z"
       style="fill:#000000;fill-opacity:1;stroke-width:0.103415;stroke-linecap:square;paint-order:stroke fill markers"
       id="path91" /><path
       d="m -111.04955,480.37961 c -1.19673,-1.18921 -2.19978,-2.39977 -3.07319,-3.55017 1.68253,2.20125 3.07268,3.55017 3.07268,3.55017 z"
       style="fill:#000000;fill-opacity:1;stroke-width:0.103415;stroke-linecap:square;paint-order:stroke fill markers"
       id="path92" /><path
       d="m -100.6972,443.46713 c -0.24014,0.71719 -0.39337,1.47254 -0.4439,2.25103 0,0 0.23371,-1.60681 0.4439,-2.25103 z"
       style="fill:#000000;fill-opacity:1;stroke-width:0.103415;stroke-linecap:square;paint-order:stroke fill markers"
       id="path93" /><path
       d="m -95.191588,437.99047 c -2.57078,0.78212 -4.594717,2.74737 -5.496822,5.44359 0.874145,-2.57783 2.895932,-4.64841 5.496822,-5.44359 z"
       style="fill:#000000;fill-opacity:1;stroke-width:0.103415;stroke-linecap:square;paint-order:stroke fill markers"
       id="path94" /><path
       d="m -95.018468,432.87915 c -0.27784,-0.005 -0.55465,0.008 -0.83199,0.015 -0.69469,0.0191 -1.38339,0.0728 -2.063957,0.16639 -0.20084,0.0274 -0.40324,0.0437 -0.60306,0.0775 -0.85781,0.14621 -1.701035,0.34868 -2.523365,0.60926 -0.16788,0.0531 -0.33066,0.12243 -0.49713,0.18036 -0.67374,0.23468 -1.33124,0.50838 -1.97198,0.81752 -0.2084,0.10059 -0.41764,0.19884 -0.62271,0.30747 -0.98467,0.52133 -1.92397,1.12553 -2.80241,1.81798 -1.2874,1.02385 -2.94595,2.77866 -3.90002,4.19199 -0.0725,0.10453 -0.0748,0.0997 -0.20205,0.29714 -0.7655,1.18268 -1.47334,2.53616 -2.13527,3.97392 -0.66553,1.44408 -1.38135,3.2022 -2.04536,5.30097 -0.42997,1.37114 -0.80885,2.79397 -1.13584,4.24521 -0.31989,1.42132 -0.60701,2.93328 -0.832,4.55735 -0.0626,0.44993 -0.11971,0.90061 -0.17104,1.35185 -0.26473,2.32693 -0.37213,3.69136 -0.38964,6.38514 -0.012,1.29851 0.0153,2.64176 0.0879,4.02922 0.28905,0.58545 0.58962,1.14831 0.89606,1.68723 0.51032,0.88806 1.24242,2.06443 2.1854,3.35742 0.16117,0.2206 0.2979,0.37682 0.45424,0.58136 0.87341,1.1504 1.87646,2.36096 3.07319,3.55017 0.0248,0.0234 1.62558,1.52859 1.65882,1.52859 v 0 c 0.0369,0 0,-5.87574 0,-14.24048 v -13.69993 l 4.12481,-4.12482 4.12482,-4.12481 c 0.0505,-0.77849 0.20376,-1.53384 0.4439,-2.25103 10e-4,-0.005 0.003,-0.0147 0.004,-0.0191 0.942505,-2.83176 3.121282,-4.85939 5.871992,-5.5609 0.0372,-0.009 0.0758,-0.0144 0.11317,-0.0232 0.12833,-0.0306 0.25835,-0.0562 0.38913,-0.0806 0.0732,-0.0133 0.14583,-0.0281 0.21962,-0.0393 0.054,-0.009 0.10634,-0.0215 0.16071,-0.0289 0.12593,-0.0179 0.27337,-0.032 0.43925,-0.0408 2.257477,-0.16478 4.722547,0.61988 6.833694,2.22415 l 0.005,0.005 c 0.52611,0.39467 1.04585,0.85463 1.54668,1.39061 0.12563,0.13049 0.172768,0.18934 0.32504,0.36174 l 0.387164,0.43087 c 0.50868,-0.29499 0.997484,-0.58316 1.471644,-0.94661 1.405604,-1.10202 1.708421,-1.79161 1.708421,-1.79161 l -0.535372,-0.59635 c -2.839477,-3.02479 -6.678734,-5.0932 -10.986921,-5.70146 -0.29518,-0.0414 -0.59138,-0.0538 -0.88728,-0.0811 -0.45918,-0.0427 -0.91929,-0.0811 -1.38751,-0.0899 z"
       style="fill:#000000;fill-opacity:1;stroke-width:0.103;stroke-linecap:square;stroke-dasharray:none;paint-order:stroke fill markers"
       id="path95" /><path
       style="fill:#000000;fill-opacity:1;stroke:#000000;stroke-width:0.3;stroke-linecap:square;stroke-linejoin:round;stroke-dasharray:none;stroke-opacity:1;paint-order:stroke fill markers"
       d="m -109.35556,481.49228 v 0"
       id="path96" /><g
       id="g100"
       transform="translate(49.741667,232.83342)"
       style="fill:#000000;fill-opacity:1"><path
         d="m -133.84714,213.79315 c 0.79577,-0.007 1.56597,0.0218 2.29909,0.0816 3.71924,0.30385 5.81992,1.06832 6.80062,1.43402 -1.25629,-0.19249 -2.61538,-0.35595 -4.24419,-0.19534 -2.04931,0.20208 -4.14414,0.67643 -5.72265,1.38287 l -1.58595,-2.57452 c 0.83576,-0.0803 1.65731,-0.12205 2.45308,-0.12868 z"
         style="fill:#000000;fill-opacity:1;stroke-width:1.003;stroke-linecap:square;paint-order:stroke fill markers"
         id="path97" /><path
         d="m -130.02667,207.65813 c 0.23056,0.0465 6.7134,1.43354 8.86561,7.64087 -0.51088,-0.23966 -3.96799,-1.84144 -7.33599,-2.32854 -3.38017,-0.48884 -7.08378,-0.43249 -7.59023,-0.42736 0.32002,-0.16111 1.06677,-0.51927 2.2872,-1.32447 1.41912,-0.93629 2.99459,-2.19529 3.77341,-3.5605 z"
         style="fill:#000000;fill-opacity:1;stroke-width:1.003;stroke-linecap:square;paint-order:stroke fill markers"
         id="path98" /><path
         d="m -127.21239,213.72442 c 0.005,-0.004 0.01,-0.008 0.015,-0.0114 a 0.15000001,0.15000001 0 0 1 0.14986,-0.0191 0.15000001,0.15000001 0 0 0 -0.13798,0.009 0.15000001,0.15000001 0 0 0 -0.0269,0.0212 z"
         style="fill:#000000;fill-opacity:1;stroke-width:0.0437498;stroke-linecap:square;paint-order:stroke fill markers"
         id="path99" /><path
         d="m -129.33686,209.52313 c 0.21662,-0.007 0.44136,0.10268 0.63045,0.29145 0.13557,0.13537 0.17489,0.32222 0.24598,0.49816 -0.31657,-0.0924 -0.64691,-0.1945 -0.79685,-0.38499 -0.10362,-0.13162 -0.16181,-0.2647 -0.17363,-0.34364 -0.005,-0.0311 3e-4,-0.0433 0.002,-0.0512 0.0305,-0.006 0.061,-0.009 0.092,-0.01 z"
         style="fill:#000000;fill-opacity:1;stroke:none;stroke-width:1.003;stroke-linecap:square;stroke-opacity:1;paint-order:stroke fill markers"
         id="path100" /></g><path
       style="fill:#000000;fill-opacity:1;stroke:none;stroke-width:0.103;stroke-linecap:round;stroke-linejoin:round;stroke-dasharray:none;stroke-opacity:1;paint-order:stroke fill markers"
       d="m -108.89742,425.46769 c 0.93838,0.95184 3.79765,4.70997 9.067865,6.11318 0,0 -0.606655,0.13143 -1.934245,0.56654 -1.28013,-0.72572 -4.37282,-2.49473 -5.02745,-3.09466 -1.29915,-1.1906 -1.99381,-1.91267 -2.65171,-3.49795 0,0 0.34406,-0.0212 0.54554,-0.0871 z"
       id="path101" /><path
       style="fill:#000000;fill-opacity:1;stroke:none;stroke-width:0.103;stroke-linecap:round;stroke-linejoin:round;stroke-dasharray:none;stroke-opacity:1;paint-order:stroke fill markers"
       d="m -83.515584,450.44268 c 0.44713,1.64571 0.88813,3.54769 0.88813,3.54769 0,0 -1.56408,2.27731 -2.33954,4.00401 -0.77545,1.72669 -2.3132,6.35617 -2.3132,6.35617 0,0 -0.324337,-0.56067 -0.883837,-0.7801 v -8.12991 c 0,0 2.179147,-2.65153 4.648447,-4.99786 z"
       id="path102" /><path
       d="m -103.85528,485.46866 c 3.46393,2.17931 7.18439,3.83605 12.296939,4.70463 v -10.18388 l -12.296939,-11.99617 v 13.52528 z"
       style="fill:#000000;fill-opacity:1;stroke-width:1.097;stroke-linecap:round;stroke-linejoin:round;paint-order:stroke fill markers"
       id="path103" /><path
       d="m -99.43383,451.33535 c -4.32733,3.95279 -0.102896,0.0944 -4.4106,4.02921 v 4.58215 4.91598 l 5.345943,4.95112 a 0.15001501,0.15001501 0 0 1 0.0041,0.002 l 9.265586,9.078 a 0.15001501,0.15001501 0 0 1 0.04496,0.10749 l 0.05788,11.50421 c 2.21854,0.22942 4.591422,0.27833 7.127729,0.10335 v -11.56054 l -4.587833,-6.50192 c -3.25742,-0.76553 -5.281679,-1.92621 -6.48436,-3.44372 -1.211989,-1.52924 -1.589856,-3.40057 -1.623156,-5.52525 -0.0144,-0.91763 0.191806,-1.84064 0.521416,-2.72438 0.957645,-2.56771 2.975195,-4.88386 3.811654,-5.77381 -3.168802,0.68652 -7.063044,-0.70963 -9.073349,-3.74395 z"
       style="fill:#000000;fill-opacity:1;stroke-width:1.097;stroke-linecap:round;stroke-linejoin:round;paint-order:stroke fill markers"
       id="path104" /><ellipse
       style="fill:url(#radialGradient2);stroke:none;stroke-width:0.719591;stroke-linecap:round;stroke-linejoin:round;stroke-dasharray:none;stroke-opacity:1;paint-order:stroke fill markers"
       id="ellipse2"
       cx="-90.86776"
       cy="442.77176"
       rx="4.0838323"
       ry="4.0604949" /></g></svg>
