<?xml version="1.0" encoding="UTF-8" standalone="no"?>
<!-- Created with Inkscape (http://www.inkscape.org/) -->

<svg
   width="42.143833mm"
   height="50.394585mm"
   viewBox="0 0 42.143833 50.394585"
   version="1.1"
   id="svg1"
   xml:space="preserve"
   xmlns:xlink="http://www.w3.org/1999/xlink"
   xmlns="http://www.w3.org/2000/svg"
   xmlns:svg="http://www.w3.org/2000/svg"><defs
     id="defs1"><linearGradient
       id="linearGradient52"><stop
         style="stop-color:#98251e;stop-opacity:1;"
         offset="0"
         id="stop52" /><stop
         style="stop-color:#f36b37;stop-opacity:1;"
         offset="1"
         id="stop53" /></linearGradient><linearGradient
       id="linearGradient702"><stop
         style="stop-color:#98251e;stop-opacity:1;"
         offset="0"
         id="stop702" /><stop
         style="stop-color:#f36b37;stop-opacity:1;"
         offset="1"
         id="stop703" /></linearGradient><linearGradient
       id="linearGradient699"><stop
         style="stop-color:#98251e;stop-opacity:1;"
         offset="0"
         id="stop699" /><stop
         style="stop-color:#f36b37;stop-opacity:1;"
         offset="1"
         id="stop700" /></linearGradient><linearGradient
       id="linearGradient696"><stop
         style="stop-color:#98251e;stop-opacity:1;"
         offset="0"
         id="stop697" /><stop
         style="stop-color:#f36b37;stop-opacity:1;"
         offset="1"
         id="stop698" /></linearGradient><linearGradient
       id="linearGradient689"><stop
         style="stop-color:#98251e;stop-opacity:1;"
         offset="0"
         id="stop689" /><stop
         style="stop-color:#f36b37;stop-opacity:1;"
         offset="1"
         id="stop690" /></linearGradient><linearGradient
       id="linearGradient687"><stop
         style="stop-color:#98251e;stop-opacity:1;"
         offset="0"
         id="stop687" /><stop
         style="stop-color:#f36b37;stop-opacity:1;"
         offset="1"
         id="stop688" /></linearGradient><linearGradient
       id="linearGradient685"><stop
         style="stop-color:#a83222;stop-opacity:1"
         offset="0"
         id="stop685" /><stop
         style="stop-color:#98251e;stop-opacity:1;"
         offset="1"
         id="stop686" /></linearGradient><linearGradient
       id="linearGradient681"><stop
         style="stop-color:#98251e;stop-opacity:1;"
         offset="0"
         id="stop681" /><stop
         style="stop-color:#f36b37;stop-opacity:1;"
         offset="1"
         id="stop682" /></linearGradient><linearGradient
       xlink:href="#linearGradient689"
       id="linearGradient24"
       gradientUnits="userSpaceOnUse"
       gradientTransform="translate(154.77913,11.005046)"
       x1="-137.32974"
       y1="192.53972"
       x2="-133.30753"
       y2="191.08978" /><linearGradient
       xlink:href="#linearGradient687"
       id="linearGradient25"
       gradientUnits="userSpaceOnUse"
       gradientTransform="translate(154.77913,11.005046)"
       x1="-145.31154"
       y1="190.65425"
       x2="-142.94974"
       y2="189.41479" /><linearGradient
       xlink:href="#linearGradient681"
       id="linearGradient26"
       gradientUnits="userSpaceOnUse"
       gradientTransform="translate(154.77913,11.005046)"
       x1="-148.02182"
       y1="195.28777"
       x2="-128.88766"
       y2="189.08209" /><linearGradient
       xlink:href="#linearGradient685"
       id="linearGradient27"
       gradientUnits="userSpaceOnUse"
       gradientTransform="translate(154.77913,11.005046)"
       x1="-149.06015"
       y1="197.68903"
       x2="-145.69577"
       y2="195.19955" /><linearGradient
       xlink:href="#linearGradient52"
       id="linearGradient53"
       x1="123.52379"
       y1="165.3165"
       x2="124.19965"
       y2="163.16847"
       gradientUnits="userSpaceOnUse" /><linearGradient
       xlink:href="#linearGradient699"
       id="linearGradient56"
       gradientUnits="userSpaceOnUse"
       gradientTransform="matrix(0.37249232,-0.03972511,0.03972511,0.37249232,158.63192,80.176063)"
       x1="-127.32238"
       y1="225.4864"
       x2="-116.51847"
       y2="223.31918" /><linearGradient
       xlink:href="#linearGradient702"
       id="linearGradient57"
       gradientUnits="userSpaceOnUse"
       gradientTransform="matrix(0.37249232,-0.03972511,0.03972511,0.37249232,158.63192,80.176063)"
       x1="-119.41132"
       y1="226.82233"
       x2="-116.4854"
       y2="226.62389" /><linearGradient
       xlink:href="#linearGradient696"
       id="linearGradient58"
       gradientUnits="userSpaceOnUse"
       x1="-127.81534"
       y1="228.99536"
       x2="-121.31607"
       y2="229.3304" /><linearGradient
       xlink:href="#linearGradient696"
       id="linearGradient59"
       gradientUnits="userSpaceOnUse"
       x1="-127.32238"
       y1="230.73697"
       x2="-121.16418"
       y2="228.76913" /><linearGradient
       xlink:href="#linearGradient696"
       id="linearGradient60"
       gradientUnits="userSpaceOnUse"
       x1="-127.81534"
       y1="228.99536"
       x2="-121.31607"
       y2="229.3304" /></defs><g
     id="layer1"
     transform="translate(-87.025127,-135.8503)"><circle
       style="display:none;fill:#2f3841;fill-opacity:1;stroke:none;stroke-width:1.12195;stroke-linecap:round;stroke-linejoin:round;stroke-dasharray:none;stroke-opacity:1;paint-order:stroke fill markers"
       id="circle4"
       r="129.5471"
       cy="93.27813"
       cx="98.311684" /><path
       style="display:none;fill:none;fill-opacity:1;stroke:#ff0000;stroke-width:0.1;stroke-linecap:round;stroke-linejoin:round;stroke-dasharray:none;stroke-opacity:1;paint-order:stroke fill markers"
       d="m 99.670482,157.74168 7.501658,9e-5 c 0,0 2.36884,-0.0609 3.87113,-0.006 1.50229,0.0549 2.77831,0.26314 3.78474,0.61126 1.8342,0.63444 3.84645,1.96492 4.76456,3.19683 0.70259,0.94273 1.19737,1.65609 1.5899,2.75257 0.12041,0.33635 0.18107,1.10373 0.18107,1.10373"
       id="path38" /><g
       id="g61"><g
         id="g24"
         transform="translate(89.408535,-54.34594)"><path
           d="m 14.082827,212.0993 c -0.67122,0.23356 -1.32795,0.50664 -1.97198,0.81752 0.64074,-0.30914 1.29824,-0.58284 1.97198,-0.81752 z"
           id="path7" /><path
           d="m 4.830667,207.8055 a 0.88850653,0.88850653 0 0 0 -0.88832,0.88884 0.88850653,0.88850653 0 0 0 0.88832,0.88831 0.88850653,0.88850653 0 0 0 0.88832,-0.88831 0.88850653,0.88850653 0 0 0 -0.88832,-0.88884 z"
           style="fill:#1c8dff;stroke-width:0.0479999;stroke-linecap:square;paint-order:stroke fill markers"
           id="path17" /><path
           d="m 4.830667,207.8055 a 0.88850653,0.88850653 0 0 1 0.88832,0.88884 0.88850653,0.88850653 0 0 1 -0.88832,0.88831 0.88850653,0.88850653 0 0 1 -0.88832,-0.88831 0.88850653,0.88850653 0 0 1 0.88832,-0.88884 z"
           style="fill:#99261e;fill-opacity:1;stroke-width:0.0479999;stroke-linecap:square;paint-order:stroke fill markers"
           id="path18" /><path
           d="m 19.647349,202.14176 a 0.88850653,0.88850653 0 0 0 -0.88832,0.88884 0.88850653,0.88850653 0 0 0 0.88832,0.88832 0.88850653,0.88850653 0 0 0 0.88883,-0.88832 0.88850653,0.88850653 0 0 0 -0.88883,-0.88884 z"
           style="fill:#1c8dff;stroke-width:0.0479999;stroke-linecap:square;paint-order:stroke fill markers"
           id="path19" /><path
           d="m 19.647349,202.14176 a 0.88850653,0.88850653 0 0 1 0.88883,0.88884 0.88850653,0.88850653 0 0 1 -0.88883,0.88832 0.88850653,0.88850653 0 0 1 -0.88832,-0.88832 0.88850653,0.88850653 0 0 1 0.88832,-0.88884 z"
           style="fill:url(#linearGradient24);fill-opacity:1;stroke-width:0.0479999;stroke-linecap:square;paint-order:stroke fill markers"
           id="path20" /><path
           d="m 10.356427,200.77079 a 0.88850653,0.88850653 0 0 0 -0.88883,0.88883 0.88850653,0.88850653 0 0 0 0.88883,0.88832 0.88850653,0.88850653 0 0 0 0.88832,-0.88832 0.88850653,0.88850653 0 0 0 -0.88832,-0.88883 z"
           style="fill:#1c8dff;stroke-width:0.0479999;stroke-linecap:square;paint-order:stroke fill markers"
           id="path21" /><path
           d="m 10.356427,200.77079 a 0.88850653,0.88850653 0 0 1 0.88832,0.88883 0.88850653,0.88850653 0 0 1 -0.88832,0.88832 0.88850653,0.88850653 0 0 1 -0.88883,-0.88832 0.88850653,0.88850653 0 0 1 0.88883,-0.88883 z"
           style="fill:url(#linearGradient25);fill-opacity:1;stroke-width:0.0479999;stroke-linecap:square;paint-order:stroke fill markers"
           id="path22" /><path
           d="m 4.122187,190.19624 c 0,0 -3.21843996,6.22284 2.5895,13.42554 0,0 -4.59714,1.22369 -9.09505,-4.20026 0,0 -0.12553,13.38895 12.64531,12.6661 l 2.455533,3e-5 -2.744493,-2.81506 h -3.52175 c -0.24081,0.64916 -0.87565,1.1126 -1.62057,1.1126 -0.952,-1e-5 -1.72341,-0.75683 -1.72341,-1.69085 0,-0.93401 0.77141,-1.69137 1.72341,-1.69137 0.80666,-1e-5 1.48375,0.54374 1.67173,1.27795 h 3.51348 0.21704 l 4.037491,3.80675 5.840909,-0.0289 -0.560792,-0.86736 -3.195483,-4.94241 h -2.783815 l -2.92283,-2.92282 c -0.095,0.0159 -0.19233,0.0248 -0.29197,0.0248 -0.952,0 -1.72392,-0.75736 -1.72392,-1.69137 0,-0.93402 0.77192,-1.69137 1.72392,-1.69137 0.952,0 1.72341,0.75735 1.72341,1.69137 0,0.46546 -0.19166,0.8874 -0.50178,1.19321 l 2.40452,2.40451 h 2.806035 l 4.540399,6.81502 c 1.85708,0.0156 4.128619,0.63391 4.128619,0.63391 l -4.859982,-8.23933 c -0.24316,0.12878 -0.654549,0.25451 -0.950299,0.25451 -0.952,0 -1.72341,-0.75683 -1.72341,-1.69085 0,-0.93402 0.77141,-1.69138 1.72341,-1.69137 0.952,0 1.72392,0.75736 1.72392,1.69137 0,0.28608 -0.0732,0.55598 -0.20102,0.7922 l 5.871717,9.58484 c 1.746017,0.93021 2.879927,2.18544 3.461759,2.95171 0.472514,0.6223 0.549074,0.8568 0.549074,0.8568 0,0 0.716367,-0.29691 1.337553,-0.7106 0.574729,-0.38276 1.466993,-1.08721 2.058839,-1.87289 2.988801,-3.96764 4.603813,-12.26473 -6.868485,-18.6838 0,0 1.347987,5.70885 -0.90123,5.99447 -2.19868,0.2792 1.15846,-8.03587 -14.699889,-11.05463 0,0 1.25229,2.3511 2.2686,4.60592 0.94638,2.09966 -0.7956,4.27081 -2.77193,3.20859 -2.3506,-1.26338 -5.25595,-3.8487 -7.35407,-8.50697 z"
           style="fill:url(#linearGradient26);stroke-width:0.0479999;stroke-linecap:square;paint-order:stroke fill markers"
           id="path23" /><path
           style="fill:url(#linearGradient27);stroke:none;stroke-width:0.103;stroke-linecap:round;stroke-linejoin:round;stroke-dasharray:none;stroke-opacity:1;paint-order:stroke fill markers"
           d="m 6.723377,203.63932 c 0.93838,0.95184 0.5399423,1.41407 9.29935,8.43968 l -1.752319,0.009 c -4.037491,-3.80675 -4.786231,-4.26336 -5.440861,-4.86329 -1.29915,-1.1906 -1.99381,-1.91267 -2.65171,-3.49795 0,0 0.34406,-0.0212 0.54554,-0.0871 z"
           id="path24" /></g><path
         d="m 107.95291,165.88624 v 20.35862 h -8.28216 v -27.8452 h 10.62809 c 1.3508,0 2.57487,0.13975 3.67223,0.41925 1.53206,0.39022 2.81711,1.05285 3.85516,1.98788 1.60515,1.45123 2.56148,3.21798 2.869,5.30025 -0.98058,1.39723 -1.38406,1.99034 -2.19842,3.55774 -0.3247,0.62496 -0.75935,1.82921 -0.37482,2.94613 0.0615,0.17851 0.13465,0.35164 0.35905,0.75087 -0.32285,0.78986 -1.36879,1.39821 -1.36879,1.39821 l 4.77346,11.48487 h -8.69015 l -4.01868,-8.97574 v -7.1602 h 0.65278 c 1.74075,0 2.61112,-0.74798 2.61112,-2.24393 0,-1.31917 -1.00637,-1.97875 -3.01911,-1.97875 z"
         id="text28"
         style="font-size:41.778px;font-family:'Bauhaus 93';-inkscape-font-specification:'Bauhaus 93, Normal';fill:#fdfbf9;stroke-width:0.3;stroke-linecap:round;stroke-linejoin:round;paint-order:stroke fill markers"
         aria-label="R" /><path
         d="m 127.69204,164.4285 c 0,0 -3.00285,-1.42074 -6.86004,-1.01751 -0.0167,0.009 -0.0258,0.0129 -0.0258,0.0129 0.007,0.0146 0.2122,0.4156 0.39326,0.93173 0.18436,0.52555 0.30024,1.28829 0.30024,1.28829 1.70457,-0.78843 4.76996,-1.62955 6.19238,-1.21543 z"
         style="fill:url(#linearGradient53);stroke:none;stroke-width:0.1;stroke-linecap:round;stroke-linejoin:round;paint-order:stroke fill markers"
         id="path50" /><path
         d="m 124.15944,160.66749 c -0.74849,1.39208 -3.05913,2.60602 -3.32744,2.7435 3.85719,-0.40323 6.86004,1.01751 6.86004,1.01751 0.87649,0.33182 1.47692,0.64441 1.47692,0.64441 -1.13312,-3.65397 -5.00952,-4.40542 -5.00952,-4.40542 z"
         style="fill:#f36b37;fill-opacity:1;stroke:none;stroke-width:0.1;stroke-linecap:round;stroke-linejoin:round;paint-order:stroke fill markers"
         id="path49" /><g
         id="g60"><g
           id="g55"
           style="fill:url(#linearGradient60);fill-opacity:1;stroke:none;stroke-opacity:1"
           transform="matrix(0.37249232,-0.03972511,0.03972511,0.37249232,158.63192,80.176064)"><path
             d="m -128.06411,231.46259 c -0.58005,0.004 -1.04418,0.47468 -1.03985,1.05471 0.004,0.58004 0.4754,1.04418 1.05543,1.03984 0.58002,-0.004 1.04133,-0.4754 1.037,-1.05544 -0.004,-0.58001 -0.47257,-1.04345 -1.05258,-1.03911 z"
             style="fill:url(#linearGradient58);fill-opacity:1;stroke:none;stroke-width:0.065839;stroke-linecap:square;stroke-opacity:1;paint-order:stroke fill markers"
             id="path53" /><path
             d="m -127.32238,222.60706 v 8.12991 c 0.67491,0.29088 1.14918,0.96892 1.15506,1.75831 0.007,0.88456 -0.5792,1.63824 -1.38065,1.86736 -0.15808,0.0452 -0.32454,0.07 -0.4965,0.0713 -1.04377,0.008 -1.89495,-0.85204 -1.90316,-1.91111 -0.006,-0.85441 0.5374,-1.58501 1.29778,-1.84001 v -5.69353 -0.71203 c -1.78532,2.35836 -3.31372,4.91616 -3.54526,6.89156 -4.9e-4,0.004 -0.001,0.008 -0.002,0.0127 -0.0245,0.21885 -0.0382,0.4415 -0.0382,0.66692 0,3.32908 2.73392,6.02832 6.11215,6.02832 3.38182,0 6.39246,-2.5778 6.11215,-6.01611 v -0.002 c -0.40971,-6.00696 -2.54309,-13.81269 -2.66292,-14.24948 -0.1749,0.16626 -2.31858,2.19277 -4.64831,4.99796 z"
             style="fill:url(#linearGradient59);fill-opacity:1;stroke:none;stroke-width:0.0492821;stroke-linecap:square;stroke-opacity:1;paint-order:stroke fill markers"
             id="path54" /></g><path
           d="m 122.21363,166.70244 c 0,0 1.91159,4.37028 1.27062,5.38095 0.75057,-0.33824 1.25238,-1.05516 1.16343,-1.88887 -0.21882,-1.57373 -1.17865,-2.43914 -2.43408,-3.4921 z"
           style="fill:url(#linearGradient57);stroke-width:0.017981;stroke-linecap:square;paint-order:stroke fill markers"
           id="path55" /><path
           style="fill:url(#linearGradient56);fill-opacity:1;stroke:none;stroke-width:0.0385843;stroke-linecap:round;stroke-linejoin:round;stroke-dasharray:none;stroke-opacity:1;paint-order:stroke fill markers"
           d="m 121.58137,166.10707 c 0.23194,0.59526 0.47176,1.28622 0.47176,1.28622 0,0 -0.49216,0.9104 -0.7124,1.58439 -0.22026,0.67399 -0.60915,2.45952 -0.60915,2.45952 0,0 -0.1431,-0.19593 -0.36023,-0.25543 l -0.32297,-3.02833 c 0,0 0.70638,-1.07424 1.53297,-2.04633 z"
           id="path56" /></g></g></g></svg>
